<?xml version="1.0" encoding="iso-8859-1"?>
<!-- Uploaded to: SVG Repo, www.svgrepo.com, Generator: SVG Repo Mixer Tools -->
<!DOCTYPE svg PUBLIC "-//W3C//DTD SVG 1.1//EN" "http://www.w3.org/Graphics/SVG/1.1/DTD/svg11.dtd">
<svg fill="#CD3446" version="1.1" id="Capa_1" xmlns="http://www.w3.org/2000/svg" xmlns:xlink="http://www.w3.org/1999/xlink" 
	 width="800px" height="800px" viewBox="0 0 30.714 30.714"
	 xml:space="preserve">
<g>
	<g>
		<path d="M16.463,0.029v14.234h14.236C30.173,6.637,24.09,0.554,16.463,0.029z"/>
		<path d="M16.712,16.398l6.081,12.363c4.445-2.451,7.555-7.022,7.921-12.363H16.712z M23.639,25.643l-3.498-7.11h8.084
			C27.525,21.339,25.918,23.833,23.639,25.643z"/>
		<path d="M14.329,0.027C6.33,0.557,0,7.196,0,15.33c0,8.481,6.875,15.357,15.356,15.357c1.94,0,3.785-0.383,5.492-1.043
			l-6.52-13.246L14.329,0.027L14.329,0.027z"/>
	</g>
</g>
</svg>